<?xml version="1.0" standalone="no"?>
<!DOCTYPE svg PUBLIC "-//W3C//DTD SVG 1.1//EN" "http://www.w3.org/Graphics/SVG/1.1/DTD/svg11.dtd" >
<svg xmlns="http://www.w3.org/2000/svg">
<metadata>
This is a custom SVG webfont generated by Font Squirrel.
Copyright   : Copyright c 2010 by Marco Mller All rights reserved
Designer    : Marco Mller
Foundry     : Marco Mller
Foundry URL : www26pluszeichende
</metadata>
<defs>
<font id="webfontXeN1mLnA" horiz-adv-x="452" >
<font-face units-per-em="2048" ascent="1536" descent="-512" />
<missing-glyph horiz-adv-x="430" />
<glyph unicode=" "  horiz-adv-x="430" />
<glyph unicode="&#x09;" horiz-adv-x="430" />
<glyph unicode="&#xa0;" horiz-adv-x="430" />
<glyph unicode="!" horiz-adv-x="421" d="M147 344v1069l19 21h86q20 0 20 -21v-1069l-20 -20h-86q-19 0 -19 20zM289 143v-123l-19 -20h-116q-20 0 -21 20v123l19 21h116q21 -1 21 -21z" />
<glyph unicode="&#x22;" horiz-adv-x="555" d="M186 1178h-39q-18 0 -20 20l-27 297l19 21h92q20 0 20 -21l-24 -297zM369 1178h-39q-18 0 -21 20l-26 297l18 21h92q20 0 21 -21l-25 -297z" />
<glyph unicode="#" horiz-adv-x="1306" d="M764 373l78 327h-322l-76 -327h320zM858 260l-67 -276q-2 -16 -21 -17h-86q-20 0 -14 21l69 272h-319l-68 -276q-2 -16 -20 -17h-86q-18 0 -15 21l68 272h-238q-20 -2 -16 19l18 77q6 16 21 17h240l77 327h-280q-20 -2 -17 19l19 76q6 16 20 16h285l70 293q2 16 20 16h86 h8q2 0 6.5 -4t-2.5 -14l-69 -291h319l70 293q6 16 20 16h86q20 0 15 -20l-70 -289l260 2q23 0 17 -18l-19 -78q-6 -16 -22 -17h-260l-78 -327h303q23 0 16 -19l-18 -78q-6 -16 -23 -16h-305z" />
<glyph unicode="$" horiz-adv-x="993" d="M551 -14v-144l-19 -20h-77q-20 0 -21 20v144q-139 18 -241.5 115.5t-102.5 285.5l21 21h86q18 0 18 -21q0 -250 219 -283v596l-127 66q-201 102 -201 338q0 143 92.5 233t235.5 107v135l19 20h77q20 0 21 -20v-133q152 -14 233.5 -103.5t102.5 -224.5q4 -20 -13 -26 l-79 -21q-25 -8 -29 14q-23 207 -215 234v-543l166 -88q90 -47 138 -131t48 -184q0 -156 -94 -264.5t-258 -122.5zM778 373q0 152 -157 233l-70 35v-537q113 16 170 96.5t57 172.5zM231 1098q0 -150 113 -213l90 -51v485q-104 -16 -153.5 -79.5t-49.5 -141.5z" />
<glyph unicode="%" horiz-adv-x="1198" d="M946 1413l-471 -1397q-6 -16 -20 -16h-86q-20 0 -15 20l471 1397q6 16 21 17h86q20 -1 14 -21zM338 1403q-111 0 -165 -69.5t-54 -188.5v-164q0 -115 58.5 -186.5t160.5 -71.5q100 0 158.5 71.5t58.5 186.5v164q0 119 -54 188.5t-163 69.5zM338 829q-51 0 -84 42t-33 124 v135q0 82 33 126t84 44t83 -44t32 -126v-135q0 -82 -32 -124t-83 -42zM944 680q-111 0 -165 -69.5t-54 -188.5v-164q0 -115 58.5 -186.5t160.5 -71.5q100 0 158.5 71.5t58.5 186.5v164q0 119 -54 188.5t-163 69.5zM944 106q-51 0 -84 42t-33 124v136q0 82 33 126t84 44 t83 -43t32 -127v-136q0 -82 -32 -124t-83 -42z" />
<glyph unicode="&#x26;" horiz-adv-x="1208" d="M319 598q-78 -72 -105.5 -121t-27.5 -141q0 -94 74 -166t184 -72q51 0 95.5 29t105.5 100l47 56l-262 413zM223 662l146 129l-45 75q-68 121 -46.5 221.5t105.5 165t190 64.5q123 0 208 -70.5t85 -216.5q0 -20 -20 -20h-78q-18 0 -18 20q0 172 -172 172 q-115 0 -165.5 -84t23.5 -211l348 -542q33 33 50.5 48t49 30.5t64.5 15.5h43q23 0 23 -21v-69q0 -23 -21 -23h-30q-63 -2 -117 -78q68 -100 97.5 -127.5t76.5 -27.5h37q20 0 20 -21v-69q0 -23 -20 -23h-45q-76 0 -125 38t-121 146l-47 -53q-72 -80 -130.5 -112.5 t-146.5 -32.5q-170 0 -268 103.5t-98 246.5q0 197 147 326z" />
<glyph unicode="'" horiz-adv-x="284" d="M166 1178h-39q-18 0 -21 20l-26 297l18 21h92q20 0 21 -21l-25 -297z" />
<glyph unicode="(" horiz-adv-x="608" d="M227 866v-278q0 -334 80 -533.5t180 -279.5q20 -16 5 -33l-52 -51q-16 -16 -32 -2q-131 109 -218.5 336t-87.5 583v238q0 356 87 583.5t219 335.5q16 14 32 -2l52 -51q16 -16 -5 -33q-100 -80 -180 -279.5t-80 -533.5z" />
<glyph unicode=")" horiz-adv-x="712" d="M397 588v278q0 334 -79.5 533.5t-180.5 279.5q-20 16 -4 33l51 51q16 16 33 2q131 -109 218 -336t87 -583v-238q0 -356 -87 -583.5t-218 -335.5q-16 -14 -33 2l-51 51q-16 16 4 33q100 80 180 279.5t80 533.5z" />
<glyph unicode="*" horiz-adv-x="600" d="M297 1245l-104 -119q-6 -8 -13.5 -9t-11.5 1l-2 2l-37 27q-2 2 -3 4t-3 10t2 17l68 135l-138 73q-16 8 -12 23l12 43q0 2 2 4t10.5 6t16.5 4l147 -22l25 151q2 10 7 15.5t9 5.5h4h46q16 0 20 -21l25 -151l151 22q10 2 17.5 -1t9.5 -7v-4l14 -43q4 -16 -14 -27l-135 -69 l65 -137q10 -23 -2 -29l-37 -27q-14 -8 -30 6z" />
<glyph unicode="+" horiz-adv-x="643" d="M262 606v236l19 20h79q20 0 21 -20v-236h223l21 -18v-76q0 -20 -21 -20h-223v-236l-19 -20h-79q-20 0 -21 20v236h-223l-21 18v76q0 20 21 20h223z" />
<glyph unicode="," horiz-adv-x="286" d="M39 -215h-4q-16 0 -17 20v17q0 16 13 16h8q111 0 104 162h-55q-20 0 -20 20v123l18 21h117q20 0 20 -21v-123q0 -125 -45 -180t-139 -55z" />
<glyph unicode="-" horiz-adv-x="628" d="M506 492h-379l-21 18v76q0 20 21 20h379l20 -18v-76q0 -20 -20 -20z" />
<glyph unicode="." horiz-adv-x="346" d="M246 143v-123l-19 -20h-116q-20 0 -21 20v123l19 21h116q21 -1 21 -21z" />
<glyph unicode="/" horiz-adv-x="671" d="M657 1485l-520 -1540q-6 -16 -20 -17h-86q-20 0 -15 21l521 1540q6 16 20 16h86q20 0 14 -20z" />
<glyph unicode="0" horiz-adv-x="970" d="M485.5 1448q182.5 0 272.5 -115.5t90 -312.5v-604q0 -190 -97.5 -310t-265.5 -120t-265 119.5t-97 310.5v604q0 197 90 312.5t272.5 115.5zM485.5 104q108.5 0 173 75t64.5 237v604q0 309 -237.5 309t-237.5 -309v-604q0 -162 64.5 -237t173 -75z" />
<glyph unicode="1" horiz-adv-x="862" d="M770 0h-678l-20 20v80q0 18 22 19h275v1196h-162l-21 20v80q0 18 23 19h264q20 0 21 -21v-1294h274l23 -19v-80q-1 -20 -21 -20z" />
<glyph unicode="2" horiz-adv-x="884" d="M436 1448q190 0 280.5 -113.5t90.5 -279.5q0 -223 -152 -414l-374 -522h512l20 -19v-82q0 -18 -18 -18h-654l-18 18v80q0 20 18 43l394 547q90 115 118.5 190.5t28.5 176.5q0 123 -61.5 198.5t-186.5 75.5q-215 0 -215 -237l-20 -25h-86q-18 0 -19 25q0 158 91 257 t251 99z" />
<glyph unicode="3" horiz-adv-x="946" d="M125 1090q0 168 92 263t246 95q168 0 255 -101.5t87 -277.5q0 -301 -160 -334q59 -25 97 -66.5t54.5 -94t21.5 -93.5t5 -94q0 -188 -95 -294.5t-267 -106.5q-100 0 -175 37.5t-112 99t-54.5 122t-17.5 122.5l19 20h86q20 0 20 -20q0 -127 61.5 -195t172.5 -68 q113 0 175 61.5t62 221.5q0 152 -60 222.5t-144 70.5h-48l-20 20v78q0 18 20 19h50q184 0 184 272q0 260 -217 260q-111 0 -162 -58.5t-51 -180.5l-21 -21h-86q-18 1 -18 21z" />
<glyph unicode="4" horiz-adv-x="972" d="M582 1315l-377 -830v-24h395v854h-18zM88 518l418 895q6 8 12 13.5t10 7.5h4h173q20 0 20 -21v-952h125l20 -19v-80q0 -20 -22 -20h-123v-322l-18 -20h-86q-20 0 -21 20v322h-508q-20 4 -20 25v96q0 22 16 55z" />
<glyph unicode="5" horiz-adv-x="915" d="M207 858q53 88 244 88q176 0 269 -114.5t93 -284.5v-131q0 -190 -97.5 -309t-264.5 -119q-172 0 -270.5 108.5t-98.5 302.5l18 21h86q20 0 21 -21q0 -166 60.5 -229.5t183.5 -63.5q238 0 237 310v127q0 285 -237 284q-102 0 -173 -35.5t-71 -113.5l-21 -21h-86 q-18 0 -18 21v735l18 21h617l20 -19v-80q0 -20 -20 -20h-510v-457z" />
<glyph unicode="6" horiz-adv-x="933" d="M231 1020v-242q63 106 250 107q174 0 265.5 -114t91.5 -286v-69q0 -195 -97.5 -312.5t-279.5 -117.5q-166 0 -260.5 119.5t-94.5 310.5v604q0 207 101.5 317.5t267.5 110.5q168 0 265.5 -107.5t97.5 -267.5l-19 -24h-86q-20 0 -20 24q0 129 -65.5 192.5t-172.5 63.5 q-113 0 -178.5 -68.5t-65.5 -240.5zM231 481v-65q0 -162 63.5 -237t166.5 -75q123 0 187.5 73t64.5 239v65q0 285 -230 285q-252 0 -252 -285z" />
<glyph unicode="7" horiz-adv-x="825" d="M147 20l383 904q78 182 80 188q43 102 43 203h-561l-20 18v82q0 18 18 19h2h2h2h2h2h2h2h2h3h2h2h2h2h2h2h2h2h2h2h2h2h2h2h2h2h2h2h2h3h2h2h2h2h2h2h2h2h2h2h2h2h2h2h2h2h2h2h2h2h3h2h2h2h2h2h2h2h2h2h2h2h2h2h2h2h2h2h2h2h2h3h2h2h2h2h2h2h2h2h2h2h2h2h2h2h2h2h2h2h2h2 h3h2h2h2h2h2h2h2h2h2h2h2h2h2h2h2h2h2h2h2h2h3h2h2h2h2h2h2h2h2h2h2h2h2h2h2h2h2h2h2h2h2h3h2h2h2h2h2h2h2h2h2h2h2h2h2h2h2h2h2h2h2h3h2h2h2h2h2h2h2h2h2h2h2h2h2h2h2h2h2h2h2h2h3h2h2h2h2h2h2h2h2h2h2h2h2h2h2h2h2h2h2h2h2h3h2h2h2h2h2h2h2h2h2h2h2h2h2h2h2h2h2h2h2h2h3h2 h2h2h2h2h2h2h2h2h2h2h2h2h2h2h2h2h2h2h2h3h2h2h2h2h2h2h2h2h2h2h2h2h2h2h2h2h2h2h2h2h3h2h2h2h2h2h2h2h2h2h2h2h2h2h2h2h2h2h2h2h3h2h2h2h2h2h2h2h2h2h2h2h2h2h2h2h2h2h2h2h2h3h2h2h2h2h2h2h2h2h2h2h2h2h2h2h2h2h2h2h21l18 -19v-104q0 -111 -61 -250l-438 -1041 q-10 -20 -27 -20h-92q-25 0 -15 20z" />
<glyph unicode="8" horiz-adv-x="921" d="M461 817q213 0 213 262q0 143 -56.5 196.5t-156.5 53.5q-215 0 -215 -250q0 -262 215 -262zM460.5 104q106.5 0 170 70t63.5 213q0 158 -63.5 235.5t-170 77.5t-170 -77.5t-63.5 -235.5q0 -143 63.5 -213t170 -70zM799 1079q0 -236 -158 -323q178 -78 178 -369 q0 -61 -17.5 -124.5t-56 -129t-112.5 -106.5t-172.5 -41t-172 41t-112.5 106.5t-56.5 129t-17.5 124.5q0 291 179 369q-84 43 -122 134t-38 189q0 63 14.5 120.5t48 117t105 95.5t172.5 36q82 0 144.5 -24.5t98 -62.5t58 -89t30 -97.5t7.5 -95.5z" />
<glyph unicode="9" horiz-adv-x="942" d="M473 1448q168 0 267.5 -120t99.5 -308v-604q0 -197 -98.5 -313.5t-270.5 -116.5q-166 0 -264 107.5t-98 268.5l18 25h86q20 0 20 -25q0 -129 66 -193.5t172 -64.5q117 0 180.5 80t63.5 232v246q-74 -111 -240 -111q-176 0 -274.5 114.5t-98.5 284.5v70q0 195 94.5 311.5 t276.5 116.5zM475 670q113 0 176.5 71.5t63.5 204.5v74q0 309 -242 309q-121 0 -183.5 -71.5t-62.5 -237.5v-66q0 -143 64.5 -213.5t183.5 -70.5z" />
<glyph unicode=":" horiz-adv-x="360" d="M258 143v-123l-18 -20h-117q-20 0 -21 20v123l19 21h117q20 -1 20 -21zM258 772v-123l-18 -20h-117q-20 0 -21 20v123l19 21h117q20 -1 20 -21z" />
<glyph unicode=";" horiz-adv-x="376" d="M274 772v-123l-18 -20h-117q-20 0 -20 20v123l18 21h117q20 -1 20 -21zM90 -215h-4q-16 0 -16 20v17q0 16 12 16h8q111 0 105 162h-56q-20 0 -20 20v123l18 21h117q20 0 20 -21v-123q0 -125 -45 -180t-139 -55z" />
<glyph unicode="&#x3c;" horiz-adv-x="667" d="M20 518v2v2v2v2v2v2v2v3v2v4v2v2v4v2v4v2v4v4v19q0 16 21 28l514 326q10 4 14 2t4 -8l2 -6v-99q0 -18 -20 -28l-420 -248l420 -248q20 -10 20 -29v-98q0 -2 -1 -5t-5 -9t-14 2l-514 325q-21 15 -21 29z" />
<glyph unicode="=" horiz-adv-x="993" d="M840 346h-686l-21 19v75q0 20 21 21h686l20 -19v-75q0 -21 -20 -21zM840 635h-686l-21 18v76q0 20 21 21h686l20 -19v-76q0 -20 -20 -20z" />
<glyph unicode="&#x3e;" horiz-adv-x="667" d="M647 518q0 -14 -20 -29l-514 -325q-10 -4 -14.5 -2t-4.5 8l-2 6v98q0 18 21 29l419 248l-419 248q-20 10 -21 28v99q0 2 1 5t5 9t15 -2l514 -326q20 -12 20 -28v-2v-2v-2v-3v-2v-2v-2v-2v-2v-2v-4v-2v-4v-2v-4v-2v-4v-2v-21z" />
<glyph unicode="?" horiz-adv-x="765" d="M137 1149l-20 -25h-78q-18 0 -19 25q12 299 330 299q166 0 250 -98.5t84 -253.5q0 -70 -24.5 -132.5t-49 -95t-86.5 -102.5q-113 -131 -112 -195v-227l-19 -20h-86q-20 0 -20 20v211q0 78 36.5 141.5t108.5 145.5q4 4 25.5 28.5l30 34.5t25.5 36t24.5 45.5t14.5 49 t7 60.5q0 106 -51 169.5t-162 63.5q-209 0 -209 -180zM430 143v-123l-18 -20h-117q-20 0 -21 20v123l19 21h117q20 -1 20 -21z" />
<glyph unicode="@" horiz-adv-x="1441" d="M676 -248q-92 20 -168 53t-129 66t-96 84t-69 88t-44 98l-28 95q-9 33 -13 98t-4 87v81v188q0 291 151.5 449.5t446.5 158.5q260 0 428 -174t168 -434v-158q0 -219 -134 -381.5t-376 -162.5q-182 0 -297 74.5t-115 199.5q0 121 47.5 184.5t178.5 96.5l297 69v113 q-4 88 -59.5 144.5t-143.5 56.5q-90 0 -140.5 -47.5t-50.5 -128.5q0 -4 -3 -8.5t-7 -4.5l-2 -2h-98q-10 4 -10 15q0 131 88 210.5t223 79.5t229 -90t94 -258v-422q0 -4 -3 -8t-5 -4l-4 -2h-98q-10 4 -10 14v219l-285 -65q-55 -12 -83 -41t-32 -50.5t-4 -58.5q0 -80 74 -126 t219 -46q88 0 157.5 26t109.5 71t67.5 91t39 100t14.5 86t3 61v153q0 229 -145.5 361.5t-331.5 132.5q-225 0 -352 -127t-127 -367v-188q0 -100 5 -163t29.5 -149t70.5 -141t134 -106.5t215 -77.5q16 -4 13 -15l-19 -90q0 -12 -16 -8z" />
<glyph unicode="A" horiz-adv-x="1200" d="M588 1315l-180 -656h389l-172 656h-37zM512 1434h180q18 0 25 -21l389 -1399q2 -6 -1 -10t-7 -4h-4h-101q-12 0 -18 20l-148 519h-450l-152 -519q-6 -20 -18 -20h-101h-4q-2 0 -6 4t-2 10l395 1399z" />
<glyph unicode="B" horiz-adv-x="1044" d="M289 1315v-502h180q145 0 226 64.5t81 185.5q0 252 -272 252h-215zM705 766q238 -55 237 -348q0 -174 -104.5 -296t-311.5 -122h-362v1434h340q199 0 298 -101.5t99 -269.5q0 -127 -63 -207t-133 -90zM508 698h-219v-579h237q133 0 212 76.5t79 218.5q0 162 -81 223 t-228 61z" />
<glyph unicode="C" horiz-adv-x="1069" d="M946 1116q4 -20 -12 -26l-80 -21q-8 -4 -17.5 0t-11.5 14q-12 115 -81.5 180.5t-190.5 65.5q-147 0 -216 -80t-69 -252v-563q0 -172 69 -251t216 -79q279 0 278 330l19 21h86q20 0 20 -21q0 -203 -98 -325.5t-305 -122.5q-197 0 -303.5 122.5t-106.5 325.5v563 q0 203 106.5 327t303.5 124q180 0 275 -91t118 -241z" />
<glyph unicode="D" horiz-adv-x="1103" d="M164 1434h393q207 0 305.5 -123t98.5 -326v-536q0 -203 -98.5 -326t-305.5 -123h-393v1434zM557 1315h-268v-1196h268q279 0 279 330v536q0 330 -279 330z" />
<glyph unicode="E" horiz-adv-x="1030" d="M164 0v1434h723l20 -19v-82q0 -18 -18 -18h-600v-535h454l21 -18v-82q0 -18 -19 -18h-456v-543h598l20 -19v-82q0 -18 -18 -18h-725z" />
<glyph unicode="F" horiz-adv-x="989" d="M289 20l-21 -20h-84q-20 0 -20 20v1414h682l20 -19v-82q-2 -18 -20 -18h-557v-535h413l21 -18v-82q-2 -18 -21 -18h-413v-642z" />
<glyph unicode="G" horiz-adv-x="1058" d="M936 662v-226q0 -203 -98.5 -326.5t-305.5 -123.5q-197 0 -303 123.5t-106 326.5v563q0 205 99.5 327t295.5 122q180 0 275.5 -90t117.5 -240q4 -20 -12 -26l-80 -21q-25 -6 -28 14q-41 244 -273 244q-145 0 -207.5 -77.5t-62.5 -252.5v-563q0 -172 68.5 -252t215.5 -80 q279 0 279 332v127h-309l-21 19v80q0 20 21 20h413q21 0 21 -20z" />
<glyph unicode="H" horiz-adv-x="1140" d="M289 684v-664l-19 -20h-86q-20 0 -20 20v1393l18 21h86q20 0 21 -21v-610h563v610l18 21h86q20 0 21 -21v-1393l-19 -20h-86q-20 0 -20 20v664h-563z" />
<glyph unicode="I" d="M289 1413v-1393l-19 -20h-86q-20 0 -20 20v1393l18 21h86q21 -1 21 -21z" />
<glyph unicode="J" horiz-adv-x="716" d="M113 106q135 0 235.5 77t100.5 253v977l18 21h86q20 0 20 -21v-977q0 -193 -128 -320.5t-332 -127.5l-21 18v80q1 20 21 20z" />
<glyph unicode="K" horiz-adv-x="1116" d="M502 809l319 -567q74 -129 150 -129h33l20 -21v-69q0 -23 -20 -23h-46q-80 0 -136 48t-124 163l-284 491l-125 -178v-504l-19 -20h-88q-18 0 -18 20v1393l18 21h86q20 0 21 -21v-692l491 692q10 20 29 21h98q2 0 5 -1t9.5 -5.5t-1.5 -14.5z" />
<glyph unicode="L" horiz-adv-x="876" d="M764 0h-600v1413l18 21h86q20 0 21 -21v-1294h475l20 -19v-80q0 -20 -20 -20z" />
<glyph unicode="M" horiz-adv-x="1241" d="M553 625l-272 659l8 -1264q0 -20 -21 -20h-84q-20 0 -20 20v1393q0 20 20 21h127q18 0 29 -21l283 -663l278 663q10 20 29 21h127q20 0 20 -21v-1393q0 -20 -20 -20h-84q-20 0 -21 20l11 1264l-265 -659q-8 -20 -22 -21h-98q-17 1 -25 21z" />
<glyph unicode="N" horiz-adv-x="1159" d="M881 150l-11 1263q0 20 21 21h84q20 0 20 -21v-1393q0 -20 -20 -20h-131q-18 0 -29 20l-536 1264l10 -1264q0 -20 -21 -20h-84q-20 0 -20 20v1393q0 20 20 21h131q18 0 29 -21z" />
<glyph unicode="O" horiz-adv-x="1101" d="M551 1448q209 0 308 -124t99 -327v-563q0 -201 -99 -324.5t-308 -123.5t-308.5 123.5t-99.5 324.5v563q0 203 99.5 327t308.5 124zM551 1329q-135 0 -209 -82t-74 -250v-563q0 -330 283 -330t283 330v563q0 168 -74 250t-209 82z" />
<glyph unicode="P" horiz-adv-x="1040" d="M289 524v-504l-19 -20h-86q-20 0 -20 20v1414h321q211 0 311.5 -115t100.5 -313v-54q0 -199 -100.5 -313.5t-311.5 -114.5h-196zM289 1315v-672h196q287 0 287 309v54q0 309 -287 309h-196z" />
<glyph unicode="Q" horiz-adv-x="1146" d="M551 1448q209 0 308 -124t99 -327v-563q0 -186 -79 -301q29 -20 71 -20h33l21 -21v-69q0 -23 -21 -23h-45q-82 0 -141 53q-96 -68 -246 -67q-209 0 -308.5 123.5t-99.5 324.5v563q0 203 99.5 327t308.5 124zM682 211l-49 86q-4 10 0 14t12 4l8 2h78q20 0 29 -14l35 -63 q39 82 39 194v563q0 168 -74 250t-209 82t-209 -82t-74 -250v-563q0 -330 283 -330q102 0 168 46q-19 26 -37 61z" />
<glyph unicode="R" horiz-adv-x="1110" d="M291 596v-576l-19 -20h-86q-20 0 -20 20v1414h289q240 0 348 -105.5t108 -281.5v-43q0 -317 -266 -392l182 -370q74 -129 150 -129h20l21 -21v-69q0 -23 -21 -23h-32q-80 0 -136.5 47t-123.5 164l-185 385h-229zM291 1315v-600h182q160 0 236.5 62.5t76.5 226.5v43 q0 268 -321 268h-174z" />
<glyph unicode="S" horiz-adv-x="995" d="M344 885l373 -197q90 -47 138 -131t48 -184q0 -170 -109.5 -278.5t-299.5 -108.5q-51 0 -103.5 11t-108 41t-97.5 74t-68.5 114.5t-26.5 160.5l21 21h86q18 0 18 -21q0 -156 82 -219.5t197 -63.5q141 0 212.5 82t71.5 187q0 152 -157 233l-314 160q-201 102 -201 338 q0 160 111 252t277 92q180 0 275 -90t118 -240q4 -20 -13 -26l-79 -21q-25 -8 -29 14q-27 238 -272 238q-135 0 -199 -67.5t-64 -157.5q0 -154 113 -213z" />
<glyph unicode="T" horiz-adv-x="985" d="M883 1315h-328v-1295l-18 -20h-86q-20 0 -21 20v1295h-328l-20 18v80q0 20 20 21h781l20 -19v-80q0 -20 -20 -20z" />
<glyph unicode="U" horiz-adv-x="1073" d="M536.5 -14q-206.5 0 -305 146.5t-98.5 373.5v907l21 21h86q18 0 18 -21v-907q0 -401 278.5 -401.5t278.5 401.5v907l19 21h86q20 0 20 -21v-907q0 -227 -98.5 -373.5t-305 -146.5z" />
<glyph unicode="V" horiz-adv-x="1095" d="M561 106l313 1307q6 20 23 21h100l15 -21l-348 -1393q-6 -20 -25 -20h-182q-18 0 -23 20l-350 1393q-1 4 -1 8q0 11 15 13h92q16 0 23 -21l328 -1307h20z" />
<glyph unicode="W" horiz-adv-x="1542" d="M725 1327h92q16 0 23 -20l231 -1201h29l217 1307q6 20 22 21h95l14 -21l-248 -1393l-22 -20h-185q-18 0 -24 20l-199 1076l-197 -1076q-4 -20 -24 -20h-184q-18 0 -23 20l-248 1393q-1 4 -1 8q0 11 16 13h94q16 0 22 -21l217 -1307h29l231 1201q7 20 23 20z" />
<glyph unicode="X" horiz-adv-x="1169" d="M655 770l418 -750q3 -6 3 -10q0 -10 -17 -10h-94q-16 0 -27 20l-356 639l-351 -639q-10 -20 -26 -20h-94q-17 0 -18 10q0 4 3 10l418 764l-346 629q-10 20 14 21h94q16 0 27 -21l285 -520l284 520q10 20 27 21h94q25 0 15 -21z" />
<glyph unicode="Y" horiz-adv-x="1103" d="M481 461l-385 952q-3 6 -2 11q0 10 12 10h99q16 0 22 -21l332 -835h21l297 835q6 20 22 21h98q13 0 13 -10q0 -4 -2 -11l-502 -1393q-6 -20 -23 -20h-96q-18 0 -10 20l151 420h-24q-15 1 -23 21z" />
<glyph unicode="Z" horiz-adv-x="1099" d="M940 1292l-670 -1173h676l21 -19v-82q-2 -18 -21 -18h-792l-21 18v84q0 14 6 27l672 1186h-657l-21 18v82q2 18 21 19h774q18 -2 18 -21v-94q0 -15 -6 -27z" />
<glyph unicode="\" horiz-adv-x="593" d="M451 -55l-521 1540q-6 20 15 20h75q14 0 21 -16l520 -1540q6 -20 -14 -21h-76q-14 1 -20 17z" />
<glyph unicode="_" horiz-adv-x="1077" d="M92 -51h893l21 -19v-63q0 -20 -21 -21h-893l-20 19v63q0 21 20 21z" />
<glyph unicode="`" horiz-adv-x="292" d="M35 1341q-12 20 14 21h92q16 0 25 -16l86 -166q10 -20 -14 -21h-66q-18 0 -29 17q-18 30 -108 165z" />
<glyph unicode="a" horiz-adv-x="882" d="M393 -14q-141 0 -221 73.5t-80 200.5q0 117 53.5 182.5t188.5 98.5l297 69v113q-4 88 -59.5 144.5t-143.5 56.5q-90 0 -140 -47.5t-50 -128.5q0 -4 -3.5 -8.5t-5.5 -6.5h-4h-98q-10 4 -10 15q0 131 88 210.5t223 79.5t228.5 -90t93.5 -258v-670l-19 -20h-80q-20 0 -20 20 v72q-80 -106 -238 -106zM393 100q102 0 170 72t68 166v149l-285 -65q-135 -31 -135 -150q0 -74 50 -123t132 -49z" />
<glyph unicode="b" horiz-adv-x="940" d="M262 92v-72l-18 -20h-80q-20 0 -21 20v1393l19 21h80q20 0 20 -21v-461q29 41 87.5 63.5t119.5 22.5q150 0 244 -96t94 -248v-375q0 -143 -85 -238t-222 -95q-158 0 -238 106zM688 319v375q0 98 -58.5 163t-160.5 65q-82 0 -145.5 -55.5t-63.5 -172.5v-385 q0 -98 62.5 -153.5t166.5 -55.5q82 0 138.5 63.5t60.5 155.5z" />
<glyph unicode="c" horiz-adv-x="923" d="M672 319q0 10 5 15.5t11 5.5l4 2h72q27 0 27 -27q0 -133 -83 -231t-241 -98q-156 0 -245 92t-89 276v308q0 377 334 376q266 0 305 -250q4 -20 -12 -26l-76 -21q-18 -6 -22 17q-8 66 -55.5 116t-139.5 50q-215 0 -215 -267v-303q0 -113 56.5 -183.5t158.5 -70.5 q100 0 152.5 67.5t52.5 151.5z" />
<glyph unicode="d" horiz-adv-x="907" d="M764 1413v-1393l-21 -20h-79q-18 0 -19 20v72q-80 -106 -229 -106q-137 0 -225.5 94t-88.5 237v375q0 152 83 249t239 97q63 0 128.5 -25.5t92.5 -68.5v469l19 21h81q19 -1 19 -21zM645 317v375q0 121 -66.5 176.5t-154.5 55.5q-100 0 -151.5 -61.5t-51.5 -170.5v-375 q0 -92 55.5 -154.5t139.5 -62.5q104 0 166.5 55.5t62.5 161.5z" />
<glyph unicode="e" horiz-adv-x="925" d="M782 317q10 -4 11 -14q0 -150 -90.5 -233.5t-239.5 -83.5q-145 0 -237.5 90t-92.5 227v393q0 150 94.5 246t251.5 96q133 0 223.5 -78.5t90.5 -195.5v-152q0 -66 -70 -80l-471 -88v-141q4 -90 60.5 -146.5t150.5 -56.5q100 0 156.5 54.5t56.5 148.5q0 4 3 8t5 4l4 2h94z M674 641v119q0 78 -56.5 121t-148.5 43q-113 0 -165 -62.5t-52 -165.5v-135z" />
<glyph unicode="f" horiz-adv-x="616" d="M356 891v-871l-18 -20h-80q-20 0 -20 20v871h-84l-21 18v76q0 20 21 21h84v116q0 147 79.5 229.5t235.5 82.5h43l20 -19v-76q0 -20 -20 -20h-43q-106 0 -151.5 -47t-45.5 -150v-116h228l20 -19v-76q0 -20 -20 -20h-228z" />
<glyph unicode="g" horiz-adv-x="987" d="M455 1038h174q37 0 60.5 2t39.5 12.5t22.5 13.5t20.5 22.5t19 25.5q6 8 12 9q2 0 4 1q4 0 6 -2l4 -4l60 -51q2 -2 3 -4q4 -7 3 -14q0 -6 -4 -13l-19 -24q-57 -74 -166 -74q49 -27 73 -103.5t24 -160.5v-74q0 -133 -85 -221t-235 -88q-78 0 -145 22l-64 -92 q-22 -32 -22 -53q0 -35 65 -35l305 8q61 0 94 -5t69 -25.5t50 -69.5q13 -43 13 -111v-20q-14 -344 -400 -344q-299 0 -299 239q0 117 88 232q-49 14 -74 43q-27 30 -27 68q0 29 8 55q9 29 24 53l75 106q-45 35 -68.5 84.5t-26.5 81t-3 84.5v62q0 164 84 264t238 100z M471 406q88 0 144.5 51t56.5 143v74q0 250 -215 250q-205 0 -205 -250v-74q0 -194 219 -194zM608 27l-268 -9q-10 -10 -25.5 -28.5t-41 -73.5t-25.5 -109q0 -74 56 -105.5t132 -31.5q131 0 204 59.5t77 170.5q1 11 0 21q0 51 -17 76q-20 30 -92 30z" />
<glyph unicode="h" horiz-adv-x="942" d="M272 690v-670l-20 -20h-78q-20 0 -20 20v1393l18 21h80q20 0 20 -21v-457q49 82 217 82q152 0 236 -88t84 -260v-670l-18 -20h-80q-20 0 -21 20v670q0 98 -51 166t-150 68q-102 0 -159.5 -62.5t-57.5 -171.5z" />
<glyph unicode="i" d="M166 20v984l18 20h80q20 0 21 -20v-984l-19 -20h-80q-20 0 -20 20zM299 1413v-133l-18 -20h-107q-20 0 -20 20v133l18 21h107q20 -1 20 -21z" />
<glyph unicode="j" horiz-adv-x="505" d="M342 1413v-133l-18 -20h-107q-20 0 -20 20v133l18 21h107q20 -1 20 -21zM0 -434l-20 18v76q0 20 20 21q213 0 213 210v1113l18 20h80q20 0 21 -20v-1113q0 -156 -88 -240.5t-244 -84.5z" />
<glyph unicode="k" horiz-adv-x="858" d="M346 530l-84 -104v-406l-18 -20h-82q-18 0 -19 20v1393l19 21h80q20 0 20 -21v-815l344 414q8 12 23 12h110q25 0 13 -14l-328 -394l215 -374q51 -82 80 -104.5t90 -22.5h8l21 -21v-71q0 -23 -21 -23h-20q-82 0 -141.5 45t-125.5 156z" />
<glyph unicode="l" horiz-adv-x="528" d="M471 100l21 -18v-76q0 -20 -21 -20q-324 0 -324 333v1094l19 21h80q20 0 20 -21v-1094q0 -115 46 -167t159 -52z" />
<glyph unicode="m" horiz-adv-x="1363" d="M469 1038q168 0 233 -98q68 98 211 98q137 0 227.5 -76.5t90.5 -267.5v-674l-21 -20h-77q-20 0 -21 20v674q0 106 -48 168t-151 62q-66 0 -109.5 -46.5t-43.5 -119.5v-738l-21 -20h-73q-20 0 -21 20v738q0 68 -45 117t-133 49q-113 0 -159 -66.5t-46 -163.5v-674l-22 -20 h-76q-20 0 -21 20v984l19 20h82q18 0 18 -20v-60q27 43 83 68.5t124 25.5z" />
<glyph unicode="n" horiz-adv-x="933" d="M143 20v984l19 20h82q18 0 18 -20v-60q68 94 217 94q143 0 232.5 -91t89.5 -257v-670l-21 -20h-78q-20 0 -20 20v670q0 233 -209 234q-113 0 -162 -69t-49 -165v-670l-22 -20h-76q-21 0 -21 20z" />
<glyph unicode="o" horiz-adv-x="864" d="M432 100q92 0 151.5 68t59.5 184v307q0 264 -211 264.5t-211 -264.5v-307q0 -117 59.5 -184.5t151.5 -67.5zM432 1038q330 0 330 -379v-305q0 -174 -82 -271t-248 -97t-248 97t-82 271v305q0 379 330 379z" />
<glyph unicode="p" horiz-adv-x="940" d="M262 92v-506l-18 -20h-80q-20 0 -21 20v1418l19 20h80q20 0 20 -20v-80q16 45 88 79.5t142 34.5q154 0 234.5 -96t80.5 -252v-354q0 -143 -90 -246.5t-221 -103.5q-154 0 -234 106zM688 336v354q0 111 -55 172.5t-158 61.5q-90 0 -151.5 -63.5t-61.5 -170.5v-352 q0 -98 59.5 -168t159.5 -70q86 0 146.5 69t60.5 167z" />
<glyph unicode="q" horiz-adv-x="903" d="M641 338v352q0 119 -57.5 176.5t-149.5 57.5q-109 0 -161 -64.5t-52 -169.5v-354q0 -102 53.5 -169t145.5 -67q221 0 221 238zM760 1004v-1418l-21 -20h-80q-18 0 -18 20v506q-80 -106 -238 -106q-135 0 -218 102t-83 248v354q0 156 83 252t249 96q68 0 125 -26.5 t82 -67.5v60l21 20h79q19 0 19 -20z" />
<glyph unicode="r" horiz-adv-x="544" d="M483 920q-221 0 -221 -236v-664l-22 -20h-76q-20 0 -21 20v984l21 20h76q23 0 22 -20v-60q55 94 221 94l21 -20v-76q-1 -22 -21 -22z" />
<glyph unicode="s" horiz-adv-x="851" d="M623 778q-18 145 -181 146q-102 0 -141 -49.5t-39 -98.5q0 -86 76 -125l248 -135q166 -90 166 -266q0 -113 -82 -188.5t-219 -75.5q-88 0 -157 32.5t-104.5 82t-54 99.5t-18.5 95l18 20h82q20 0 21 -20q0 -84 59 -139.5t158 -55.5q72 0 126 43t54 107q0 104 -119 168 l-223 119q-76 39 -112 105.5t-36 129.5q0 59 25 115.5t95.5 103.5t176.5 47q121 0 203 -61.5t90 -179.5q0 -20 -16 -25l-74 -12q-20 -2 -22 18z" />
<glyph unicode="t" horiz-adv-x="628" d="M508 0h-12q-158 0 -237 72.5t-79 238.5v580h-88l-20 18v76q0 20 20 21h88v366l19 21h80q20 0 20 -21v-366h215l21 -19v-76q0 -20 -21 -20h-215v-580q0 -117 44 -155.5t153 -40.5h12l20 -19v-76q0 -20 -20 -20z" />
<glyph unicode="u" horiz-adv-x="923" d="M791 1004v-984l-23 -20h-76q-20 0 -20 20v72q-55 -106 -226 -106q-139 0 -226 87t-87 265v666l19 20h81q18 0 19 -20v-666q0 -238 207 -238q31 0 62.5 9.5t67.5 33t59.5 73.5t23.5 122v666l18 20h82q19 0 19 -20z" />
<glyph unicode="v" horiz-adv-x="808" d="M446 0h-90q-16 0 -20 20l-285 984q-1 4 -1 7q0 11 16 13h88q16 0 20 -20l227 -820l224 820l20 20h88l12 -4q4 -4 4 -9q0 -3 -1 -7l-281 -984z" />
<glyph unicode="w" horiz-adv-x="1282" d="M719 1004l213 -799l160 799l20 20h92l15 -20l-226 -984l-20 -20h-84q-16 0 -21 20l-227 867l-225 -867l-21 -20h-84q-16 0 -20 20l-228 984q-1 4 -1 7q0 11 16 13h92q16 0 20 -20l164 -799l209 799q6 20 23 20h110q17 0 23 -20z" />
<glyph unicode="x" horiz-adv-x="811" d="M621 20l-220 386l-213 -386q-10 -20 -26 -20h-92q-17 0 -18 10q0 4 3 10l281 508l-248 476q-10 20 14 20h93q16 0 26 -20l191 -375l194 375q10 20 27 20h94q25 0 14 -20l-262 -498l277 -486q3 -6 3 -10q0 -10 -18 -10h-94q-16 0 -26 20z" />
<glyph unicode="y" horiz-adv-x="811" d="M289 20l-236 984q-1 4 -1 7q0 11 16 13h92q16 0 20 -20l193 -848h20l230 848l20 20h90l15 -20l-334 -1197q-39 -137 -113 -189t-178 -52h-23l-20 22v72q0 20 20 21q39 0 57.5 2t54.5 12t57.5 39.5t33.5 77.5l47 188h-39q-14 0 -22 20z" />
<glyph unicode="z" horiz-adv-x="888" d="M242 115h526l20 -19v-78q-2 -18 -20 -18h-657l-21 18v68q0 14 6 27l543 796h-502l-20 19v78q2 18 20 18h613q18 -2 18 -20v-99q0 -14 -6 -26z" />
<glyph unicode="|" horiz-adv-x="401" d="M258 1518v-1602l-18 -20h-76q-20 0 -21 20v1602l19 20h76q20 0 20 -20z" />
<glyph unicode="&#xa7;" horiz-adv-x="866" d="M625 1221q-41 145 -201 145q-55 0 -95 -16.5t-57.5 -43t-24.5 -48t-7 -39.5q0 -84 77 -125l252 -136q176 -94 176 -260q0 -84 -50 -153.5t-134 -85.5q78 -41 120 -93.5t50 -89t8 -88.5q0 -113 -83 -188.5t-224 -75.5q-90 0 -159.5 33t-106.5 82t-55.5 99t-18.5 95l19 21 h84q20 0 20 -21q0 -84 60.5 -139t160.5 -55q74 0 129.5 43t55.5 106q0 31 -6.5 54.5t-35 55.5t-79.5 58l-156 80q-123 55 -171 122t-48 161t57.5 163.5t120.5 78.5q-96 43 -139 114.5t-43 138.5q0 96 73.5 181.5t229.5 85.5q258 0 311 -224q4 -20 -12 -26l-74 -25 q-18 -5 -24 15zM332 575l55 -26q80 -39 159 10t83 121q4 63 -26 107t-122 90q-47 16 -102 15t-100.5 -46t-45.5 -121q0 -33 4.5 -51.5t27 -45t67.5 -53.5z" />
<glyph unicode="&#xa8;" horiz-adv-x="702" d="M236 1335v-106l-19 -21h-100q-20 0 -21 21v106l19 21h100q21 -1 21 -21zM598 1335v-106l-18 -21h-101q-20 0 -20 21v106l18 21h101q20 -1 20 -21z" />
<glyph unicode="&#xaa;" horiz-adv-x="882" d="M393 -14q-141 0 -221 73.5t-80 200.5q0 117 53.5 182.5t188.5 98.5l297 69v113q-4 88 -59.5 144.5t-143.5 56.5q-90 0 -140 -47.5t-50 -128.5q0 -4 -3.5 -8.5t-5.5 -6.5h-4h-98q-10 4 -10 15q0 131 88 210.5t223 79.5t228.5 -90t93.5 -258v-670l-19 -20h-80q-20 0 -20 20 v72q-80 -106 -238 -106zM393 100q102 0 170 72t68 166v149l-285 -65q-135 -31 -135 -150q0 -74 50 -123t132 -49z" />
<glyph unicode="&#xab;" horiz-adv-x="755" d="M227 274l-135 252l135 252q8 16 21 17h86q16 0 16 -11q0 -6 -2 -10l-135 -248l135 -247q2 -4 2 -11q0 -10 -16 -10h-86q-13 0 -21 16zM500 274l-135 252l135 252q8 16 20 17h86q16 0 17 -11q0 -6 -2 -10l-136 -248l136 -247q2 -4 2 -11q0 -10 -17 -10h-86q-12 0 -20 16z " />
<glyph unicode="&#xad;" horiz-adv-x="628" d="M506 492h-379l-21 18v76q0 20 21 20h379l20 -18v-76q0 -20 -20 -20z" />
<glyph unicode="&#xb0;" horiz-adv-x="389" d="M45 1359.5q0 61.5 44 105.5t105.5 44t105.5 -44t44 -105.5t-44 -105.5t-105.5 -44t-105.5 44t-44 105.5zM131 1359.5q0 -24.5 19.5 -44t44 -19.5t44 19.5t19.5 44t-19.5 44t-44 19.5t-44 -19.5t-19.5 -44z" />
<glyph unicode="&#xb2;" horiz-adv-x="884" d="M436 1448q190 0 280.5 -113.5t90.5 -279.5q0 -223 -152 -414l-374 -522h512l20 -19v-82q0 -18 -18 -18h-654l-18 18v80q0 20 18 43l394 547q90 115 118.5 190.5t28.5 176.5q0 123 -61.5 198.5t-186.5 75.5q-215 0 -215 -237l-20 -25h-86q-18 0 -19 25q0 158 91 257 t251 99z" />
<glyph unicode="&#xb3;" horiz-adv-x="946" d="M125 1090q0 168 92 263t246 95q168 0 255 -101.5t87 -277.5q0 -301 -160 -334q59 -25 97 -66.5t54.5 -94t21.5 -93.5t5 -94q0 -188 -95 -294.5t-267 -106.5q-100 0 -175 37.5t-112 99t-54.5 122t-17.5 122.5l19 20h86q20 0 20 -20q0 -127 61.5 -195t172.5 -68 q113 0 175 61.5t62 221.5q0 152 -60 222.5t-144 70.5h-48l-20 20v78q0 18 20 19h50q184 0 184 272q0 260 -217 260q-111 0 -162 -58.5t-51 -180.5l-21 -21h-86q-18 1 -18 21z" />
<glyph unicode="&#xb4;" horiz-adv-x="440" d="M334 1341l-109 -165q-10 -16 -28 -17h-66q-25 0 -14 21l86 166q8 16 24 16h92q27 -1 15 -21z" />
<glyph unicode="&#xb9;" horiz-adv-x="862" d="M770 0h-678l-20 20v80q0 18 22 19h275v1196h-162l-21 20v80q0 18 23 19h264q20 0 21 -21v-1294h274l23 -19v-80q-1 -20 -21 -20z" />
<glyph unicode="&#xba;" horiz-adv-x="864" d="M432 100q92 0 151.5 68t59.5 184v307q0 264 -211 264.5t-211 -264.5v-307q0 -117 59.5 -184.5t151.5 -67.5zM432 1038q330 0 330 -379v-305q0 -174 -82 -271t-248 -97t-248 97t-82 271v305q0 379 330 379z" />
<glyph unicode="&#xbb;" horiz-adv-x="757" d="M666 526l-136 -252q-8 -16 -20 -16h-86q-27 0 -14 21l135 247l-135 248q-12 20 14 21h86q12 0 20 -17zM393 526l-135 -252q-8 -16 -20 -16h-86q-27 0 -15 21l135 247l-135 248q-12 20 15 21h86q12 0 20 -17z" />
<glyph unicode="&#xbf;" horiz-adv-x="749" d="M156 285q0 -180 209 -181q111 0 162 63.5t51 170.5q0 31 -7.5 60.5t-14.5 49t-24.5 45t-25.5 36t-29.5 35t-25.5 28.5q-72 82 -109 145.5t-37 141.5v211l21 20h86q18 0 18 -20v-228q0 -63 113 -194q61 -70 85.5 -103t49 -95t24.5 -132q0 -156 -83.5 -254t-249.5 -98 q-317 0 -330 299l18 24h78q21 1 21 -24zM449 1413v-123l-21 -20h-117q-18 0 -18 20v123l20 21h117q19 -1 19 -21z" />
<glyph unicode="&#xc0;" horiz-adv-x="1200" d="M432 1753q-12 20 14 21h92q16 0 25 -16l86 -166q10 -20 -14 -21h-66q-18 0 -29 17q-18 30 -108 165zM588 1315l-180 -656h389l-172 656h-37zM512 1434h180q18 0 25 -21l389 -1399q2 -6 -1 -10t-7 -4h-4h-101q-12 0 -18 20l-148 519h-450l-152 -519q-6 -20 -18 -20h-101 h-4q-2 0 -6 4t-2 10l395 1399z" />
<glyph unicode="&#xc1;" horiz-adv-x="1200" d="M772 1753l-109 -165q-10 -16 -28 -17h-66q-25 0 -14 21l86 166q8 16 24 16h92q27 -1 15 -21zM588 1315l-180 -656h389l-172 656h-37zM512 1434h180q18 0 25 -21l389 -1399q2 -6 -1 -10t-7 -4h-4h-101q-12 0 -18 20l-148 519h-450l-152 -519q-6 -20 -18 -20h-101h-4 q-2 0 -6 4t-2 10l395 1399z" />
<glyph unicode="&#xc4;" horiz-adv-x="1150" d="M563 1315l-180 -656h389l-172 656h-37zM487 1434h181q18 0 24 -21l389 -1399q2 -6 -1 -10t-7 -4h-4h-100q-12 0 -19 20l-147 519h-451l-151 -519q-6 -20 -19 -20h-100h-4q-2 0 -6 4t-2 10l395 1399zM471 1704v-107l-18 -20h-101q-20 0 -20 20v107l18 20h101q20 0 20 -20z M834 1704v-107l-19 -20h-100q-20 0 -21 20v107l19 20h100q21 0 21 -20z" />
<glyph unicode="&#xc5;" horiz-adv-x="1200" d="M453 1586.5q0 61.5 44 105.5t105.5 44t105.5 -44t44 -105.5t-44 -105.5t-105.5 -44t-105.5 44t-44 105.5zM539 1586.5q0 -24.5 19.5 -44t44 -19.5t44 19.5t19.5 44t-19.5 44t-44 19.5t-44 -19.5t-19.5 -44zM588 1315l-180 -656h389l-172 656h-37zM512 1434h180 q18 0 25 -21l389 -1399q2 -6 -1 -10t-7 -4h-4h-101q-12 0 -18 20l-148 519h-450l-152 -519q-6 -20 -18 -20h-101h-4q-2 0 -6 4t-2 10l395 1399z" />
<glyph unicode="&#xc6;" horiz-adv-x="1513" d="M750 739v576h-50l-180 -576h230zM750 0v618h-261l-192 -598q-6 -20 -18 -20h-101h-4q-2 0 -6 4t-2 10l452 1399l23 21h643l21 -19v-82q0 -18 -19 -18h2h2h2h2h2h2h2h3h2h2h2h2h2h-2h-2h-2h-2h-2h-3h-2h-2h-2h-2h-2h-2h-2h-2h-2h-2h-2h-2h-2h-2h-2h-2h-2h-2h-2h-2h-3h-2 h-2h-2h-2h-2h-2h-2h-2h-2h-2h-2h-2h-2h-2h-2h-2h-2h-2h-2h-2h-3h-2h-2h-2h-2h-2h-2h-2h-2h-2h-2h-2h-2h-2h-2h-2h-2h-2h-2h-2h-2h-3h-2h-2h-2h-2h-2h-2h-2h-2h-2h-2h-2h-2h-2h-2h-2h-2h-2h-2h-2h-3h-2h-2h-2h-2h-2h-2h-2h-2h-2h-2h-2h-2h-2h-2h-2h-2h-2h-2h-2h-2h-3h-2h-2 h-2h-2h-2h-2h-2h-2h-2h-2h-2h-2h-2h-2h-2h-2h-2h-2h-2h-2h-3h-2h-2h-2h-2h-2h-2h-2h-2h-2h-2h-2h-2h-2h-2h-2h-2h-2h-2h-2h-2h-3h-2h-2h-2h-2h-2h-2h-2h-2h-2h-2h-2h-2h-2h-2h-2h-2h-2h-2h-2h-2h-3h-2h-2h-2h-2h-2h-2h-2h-2h-2h-2h-2h-2h-2h-2h-2h-2h-2h-2h-2h-2h-3h-2h-2 h-2h-2h-2h-2h-2h-2h-2h-2h-21v-576h312l20 -18v-82q0 -18 -18 -18h2h2h2h2h2h2h2h2h2h2h-2h-2h-2h-2h-2h-2h-2h-2h-2h-2h-2h-2h-2h-2h-2h-2h-2h-3h-2h-2h-2h-2h-2h-2h-2h-2h-2h-2h-2h-2h-2h-2h-2h-2h-2h-2h-2h-3h-2h-2h-2h-2h-2h-2h-2h-2h-2h-2h-2h-2h-2h-2h-2h-2h-2h-2h-2 h-2h-3h-2h-2h-2h-2h-2h-2h-2h-2h-2h-2h-2h-2h-2h-2h-2h-2h-2h-2h-2h-2h-3h-2h-2h-2h-2h-2h-2h-2h-2h-2h-2h-2h-2h-2h-2h-2h-2h-2h-2h-2h-2h-3h-2h-2h-2h-2h-2h-2h-2h-2h-2h-2h-2h-2h-2h-2h-2h-2h-2h-2h-2h-2h-3h-2h-2h-2h-2h-2h-2h-2h-2h-2h-2h-2h-2h-2h-2h-2h-2h-2h-2h-2 h-2h-3h-2h-2h-2h-2h-2h-2h-2h-2h-2h-2h-21v-502h455l21 -19v-82q0 -18 -19 -18h2h2h2h2h2h2h-2h-2h-2h-2h-2h-2h-2h-2h-2h-2h-2h-2h-2h-2h-2h-2h-2h-2h-2h-2h-3h-2h-2h-2h-2h-2h-2h-2h-2h-2h-2h-2h-2h-2h-2h-2h-2h-2h-2h-2h-2h-3h-2h-2h-2h-2h-2h-2h-2h-2h-2h-2h-2h-2h-2h-2 h-2h-2h-2h-2h-2h-2h-3h-2h-2h-2h-2h-2h-2h-2h-2h-2h-2h-2h-2h-2h-2h-2h-2h-2h-2h-2h-2h-3h-2h-2h-2h-2h-2h-2h-2h-2h-2h-2h-2h-2h-2h-2h-2h-2h-2h-2h-2h-3h-2h-2h-2h-2h-2h-2h-2h-2h-2h-2h-2h-2h-2h-2h-2h-2h-2h-2h-2h-2h-3h-2h-2h-2h-2h-2h-2h-2h-2h-2h-2h-2h-2h-2h-2h-2 h-2h-2h-2h-2h-2h-3h-2h-2h-2h-2h-2h-2h-2h-2h-2h-2h-2h-2h-2h-2h-2h-2h-2h-2h-2h-2h-3h-2h-2h-2h-2h-2h-2h-2h-2h-2h-2h-2h-2h-2h-2h-2h-2h-2h-2h-2h-2h-3h-2h-2h-2h-2h-2h-2h-2h-2h-2h-2h-2h-2h-2h-2h-2h-2h-2h-2h-2h-2h-3h-2h-2h-2h-2h-2h-2h-2h-2h-2h-2h-2h-2h-2h-2h-2 h-2h-2h-2h-2h-3h-2h-2h-2h-2h-2h-2h-2h-2h-2h-2h-2h-2h-2h-2h-2h-2h-2h-2h-2h-2h-3h-2h-2h-2h-2h-2h-2h-2h-2h-2h-2h-2h-2h-2h-2h-2h-2h-2h-2h-2h-2h-3h-2h-2h-2h-2h-2h-2h-2h-2h-2h-20z" />
<glyph unicode="&#xc8;" horiz-adv-x="1030" d="M354 1753q-12 20 14 21h92q16 0 25 -16l86 -166q10 -20 -14 -21h-66q-18 0 -29 17q-18 30 -108 165zM164 0v1434h723l20 -19v-82q0 -18 -18 -18h-600v-535h454l21 -18v-82q0 -18 -19 -18h-456v-543h598l20 -19v-82q0 -18 -18 -18h-725z" />
<glyph unicode="&#xc9;" horiz-adv-x="1030" d="M694 1753l-109 -165q-10 -16 -28 -17h-66q-25 0 -14 21l86 166q8 16 24 16h92q27 -1 15 -21zM164 0v1434h723l20 -19v-82q0 -18 -18 -18h-600v-535h454l21 -18v-82q0 -18 -19 -18h-456v-543h598l20 -19v-82q0 -18 -18 -18h-725z" />
<glyph unicode="&#xcb;" horiz-adv-x="905" d="M123 0v1434h723l20 -19v-82q0 -18 -18 -18h-600v-535h454l21 -18v-82q0 -18 -18 -18h-457v-543h598l20 -19v-82q0 -18 -18 -18h-725zM340 1704v-107l-18 -20h-101q-20 0 -20 20v107l18 20h100q21 0 21 -20zM702 1704v-107l-18 -20h-100q-20 0 -21 20v107l19 20h100 q20 0 20 -20z" />
<glyph unicode="&#xcc;" d="M55 1753q-12 20 14 21h92q16 0 25 -16l86 -166q10 -20 -14 -21h-66q-18 0 -29 17q-18 30 -108 165zM289 1413v-1393l-19 -20h-86q-20 0 -20 20v1393l18 21h86q21 -1 21 -21z" />
<glyph unicode="&#xcd;" d="M395 1753l-109 -165q-10 -16 -28 -17h-66q-25 0 -14 21l86 166q8 16 24 16h92q27 -1 15 -21zM289 1413v-1393l-19 -20h-86q-20 0 -20 20v1393l18 21h86q21 -1 21 -21z" />
<glyph unicode="&#xcf;" horiz-adv-x="358" d="M248 1413v-1393l-19 -20h-86q-20 0 -20 20v1393l18 21h86q21 -1 21 -21zM68 1704v-107l-19 -20h-100q-20 0 -21 20v107l19 20h100q21 0 21 -20zM430 1704v-107l-18 -20h-101q-20 0 -20 20v107l18 20h101q20 0 20 -20z" />
<glyph unicode="&#xd2;" horiz-adv-x="1101" d="M381 1753q-12 20 14 21h92q16 0 25 -16l86 -166q10 -20 -14 -21h-66q-18 0 -29 17q-18 30 -108 165zM551 1448q209 0 308 -124t99 -327v-563q0 -201 -99 -324.5t-308 -123.5t-308.5 123.5t-99.5 324.5v563q0 203 99.5 327t308.5 124zM551 1329q-135 0 -209 -82t-74 -250 v-563q0 -330 283 -330t283 330v563q0 168 -74 250t-209 82z" />
<glyph unicode="&#xd3;" horiz-adv-x="1030" d="M516 1448q-209 0 -308 -124t-99 -327v-563q0 -201 99 -324.5t308 -123.5t308.5 123.5t99.5 324.5v563q0 203 -99.5 327t-308.5 124zM516 1329q135 0 209 -82t74 -250v-563q0 -330 -283 -330t-283 330v563q0 168 74 250t209 82zM672 1751q-90 -135 -109 -166 q-10 -16 -28 -16h-66q-25 0 -14 20l86 166q8 16 24 17h92q27 -1 15 -21z" />
<glyph unicode="&#xd6;" horiz-adv-x="1030" d="M516 1448q209 0 308.5 -124t99.5 -327v-563q0 -201 -99.5 -324.5t-308.5 -123.5t-308 123.5t-99 324.5v563q0 203 99 327t308 124zM516 1329q-135 0 -209 -82t-74 -250v-563q0 -330 283 -330t283 330v563q0 168 -74 250t-209 82zM403 1704v-107l-18 -20h-100 q-20 0 -21 20v107l19 20h100q20 0 20 -20zM766 1704v-107l-18 -20h-101q-20 0 -20 20v107l18 20h100q21 0 21 -20z" />
<glyph unicode="&#xd7;" horiz-adv-x="800" d="M475 547l160 -158q6 -6 6 -13t-2 -11l-4 -5l-53 -55q-12 -12 -27 2l-160 160l-159 -160q-6 -6 -13.5 -7t-9.5 3l-4 2l-53 55q-14 14 0 29l157 158l-157 160q-6 6 -6 14t2 12l4 4l53 54q12 12 27 -3l163 -163l160 159q6 6 13.5 7.5t9.5 -0.5l4 -5l49 -49q14 -16 0 -30z " />
<glyph unicode="&#xd8;" horiz-adv-x="1030" d="M516 1448q100 0 174 -31l25 72q6 16 20 16h86q20 0 15 -20l-45 -129q133 -119 133 -359v-563q0 -201 -99.5 -324.5t-308.5 -123.5q-94 0 -176 30l-25 -71q-6 -16 -20 -17h-86q-20 0 -14 21l43 129q-129 117 -129 356v563q0 203 99 327t308 124zM799 997q0 135 -54 222 l-366 -1088q55 -27 137 -27q283 0 283 330v563zM516 1329q-135 0 -209 -82t-74 -250v-563q0 -145 50 -225l368 1091q-61 29 -135 29z" />
<glyph unicode="&#xd9;" horiz-adv-x="1073" d="M536.5 -14q-206.5 0 -305 146.5t-98.5 373.5v907l21 21h86q18 0 18 -21v-907q0 -401 278.5 -401.5t278.5 401.5v907l19 21h86q20 0 20 -21v-907q0 -227 -98.5 -373.5t-305 -146.5zM428 1751q-12 20 14 21h93q16 0 24 -17l86 -166q10 -20 -14 -20h-66q-18 0 -28 16 q-19 31 -109 166z" />
<glyph unicode="&#xda;" horiz-adv-x="1073" d="M707 1753l-109 -165q-10 -16 -28 -17h-66q-25 0 -14 21l86 166q8 16 24 16h92q27 -1 15 -21zM536.5 -14q-206.5 0 -305 146.5t-98.5 373.5v907l21 21h86q18 0 18 -21v-907q0 -401 278.5 -401.5t278.5 401.5v907l19 21h86q20 0 20 -21v-907q0 -227 -98.5 -373.5 t-305 -146.5z" />
<glyph unicode="&#xdc;" horiz-adv-x="1032" d="M516 -14q-207 0 -305 146.5t-98 373.5v907l20 21h86q18 0 19 -21v-907q0 -401 278.5 -401.5t278.5 401.5v907l18 21h86q20 0 21 -21v-907q0 -227 -98.5 -373.5t-305.5 -146.5zM403 1704v-107l-18 -20h-100q-20 0 -21 20v107l19 20h100q20 0 20 -20zM766 1704v-107 l-18 -20h-101q-20 0 -20 20v107l18 20h100q21 0 21 -20z" />
<glyph unicode="&#xdd;" horiz-adv-x="1103" d="M723 1753l-109 -165q-10 -16 -28 -17h-66q-25 0 -14 21l86 166q8 16 24 16h92q27 -1 15 -21zM481 461l-385 952q-3 6 -2 11q0 10 12 10h99q16 0 22 -21l332 -835h21l297 835q6 20 22 21h98q13 0 13 -10q0 -4 -2 -11l-502 -1393q-6 -20 -23 -20h-96q-18 0 -10 20l151 420 h-24q-15 1 -23 21z" />
<glyph unicode="&#xdf;" horiz-adv-x="944" d="M739 446q0 172 -79.5 251t-172.5 79h-47l-20 21v77q0 18 20 19h49q78 0 131.5 58.5t53.5 172.5q0 102 -54.5 153.5t-144.5 51.5q-207 0 -207 -264v-1045l-18 -20h-86q-20 0 -21 20v1045q0 66 14.5 126t47.5 121.5t102.5 98.5t167.5 37q164 0 244 -90t80 -234 q0 -92 -42 -177t-118 -116q109 -35 167 -141t58 -244q0 -217 -95 -331.5t-269 -114.5h-27l-20 20v80q0 18 20 19h29q237 -1 237 327z" />
<glyph unicode="&#xe0;" horiz-adv-x="882" d="M258 1343q-12 20 14 21h92q16 0 25 -16l86 -166q10 -20 -14 -21h-66q-18 0 -29 17q-18 30 -108 165zM393 -14q-141 0 -221 73.5t-80 200.5q0 117 53.5 182.5t188.5 98.5l297 69v113q-4 88 -59.5 144.5t-143.5 56.5q-90 0 -140 -47.5t-50 -128.5q0 -4 -3.5 -8.5t-5.5 -6.5 h-4h-98q-10 4 -10 15q0 131 88 210.5t223 79.5t228.5 -90t93.5 -258v-670l-19 -20h-80q-20 0 -20 20v72q-80 -106 -238 -106zM393 100q102 0 170 72t68 166v149l-285 -65q-135 -31 -135 -150q0 -74 50 -123t132 -49z" />
<glyph unicode="&#xe1;" horiz-adv-x="882" d="M598 1343l-109 -165q-10 -16 -28 -17h-66q-25 0 -14 21l86 166q8 16 24 16h92q27 -1 15 -21zM393 -14q-141 0 -221 73.5t-80 200.5q0 117 53.5 182.5t188.5 98.5l297 69v113q-4 88 -59.5 144.5t-143.5 56.5q-90 0 -140 -47.5t-50 -128.5q0 -4 -3.5 -8.5t-5.5 -6.5h-4h-98 q-10 4 -10 15q0 131 88 210.5t223 79.5t228.5 -90t93.5 -258v-670l-19 -20h-80q-20 0 -20 20v72q-80 -106 -238 -106zM393 100q102 0 170 72t68 166v149l-285 -65q-135 -31 -135 -150q0 -74 50 -123t132 -49z" />
<glyph unicode="&#xe4;" horiz-adv-x="862" d="M369 -14q-141 0 -221 73.5t-80 200.5q0 117 53 182.5t188 98.5l297 69v113q-4 88 -59 144.5t-144 56.5q-90 0 -140 -47.5t-50 -128.5q0 -4 -3 -8.5t-5 -6.5h-4h-99q-10 4 -10 15q0 131 88 210.5t223.5 79.5t228.5 -90t93 -258v-670l-18 -20h-80q-20 0 -21 20v72 q-79 -106 -237 -106zM369 100q102 0 169.5 72t67.5 166v149l-284 -65q-135 -31 -136 -150q0 -74 50.5 -123t132.5 -49zM283 1335v-106l-19 -21h-100q-20 0 -21 21v106l19 21h100q21 -1 21 -21zM645 1335v-106l-18 -21h-101q-20 0 -20 21v106l18 21h101q20 -1 20 -21z" />
<glyph unicode="&#xe5;" horiz-adv-x="882" d="M278 1310.5q0 61.5 44 105.5t105.5 44t105.5 -44t44 -105.5t-44 -105.5t-105.5 -44t-105.5 44t-44 105.5zM364 1310.5q0 -24.5 19.5 -44t44 -19.5t44 19.5t19.5 44t-19.5 44t-44 19.5t-44 -19.5t-19.5 -44zM393 -14q-141 0 -221 73.5t-80 200.5q0 117 53.5 182.5 t188.5 98.5l297 69v113q-4 88 -59.5 144.5t-143.5 56.5q-90 0 -140 -47.5t-50 -128.5q0 -4 -3.5 -8.5t-5.5 -6.5h-4h-98q-10 4 -10 15q0 131 88 210.5t223 79.5t228.5 -90t93.5 -258v-670l-19 -20h-80q-20 0 -20 20v72q-80 -106 -238 -106zM393 100q102 0 170 72t68 166v149 l-285 -65q-135 -31 -135 -150q0 -74 50 -123t132 -49z" />
<glyph unicode="&#xe6;" horiz-adv-x="1382" d="M393 -14q-141 0 -221 73.5t-80 200.5q0 115 53.5 176.5t188.5 93.5l297 43v150q-4 88 -59.5 144.5t-143.5 56.5q-90 0 -140 -47.5t-50 -128.5q0 -4 -3.5 -8.5t-5.5 -6.5h-4h-98q-10 4 -10 15q0 131 88 210.5t223 79.5q190 0 270 -157q74 158 279 157q133 0 223 -78.5 t90 -195.5v-139q0 -66 -69 -80l-471 -70v-172q4 -90 60 -146.5t151 -56.5q100 0 156.5 54.5t56.5 148.5q0 4 3 8t7 4l2 2h94q10 -4 10 -14q0 -150 -90 -233.5t-239 -83.5q-199 0 -281 161q-12 -49 -91 -105t-196 -56zM393 100q98 0 166 68t72 160v131l-285 -43 q-135 -31 -135 -144q0 -74 50 -123t132 -49zM1171 653v107q0 78 -56 121t-148 43q-104 0 -159.5 -49.5t-55.5 -133.5v-151z" />
<glyph unicode="&#xe8;" horiz-adv-x="925" d="M782 317q10 -4 11 -14q0 -150 -90.5 -233.5t-239.5 -83.5q-145 0 -237.5 90t-92.5 227v393q0 150 94.5 246t251.5 96q133 0 223.5 -78.5t90.5 -195.5v-152q0 -66 -70 -80l-471 -88v-141q4 -90 60.5 -146.5t150.5 -56.5q100 0 156.5 54.5t56.5 148.5q0 4 3 8t5 4l4 2h94z M674 641v119q0 78 -56.5 121t-148.5 43q-113 0 -165 -62.5t-52 -165.5v-135zM313 1446q-12 20 15 20h92q16 0 24 -16l86 -166q10 -20 -14 -20h-65q-18 0 -29 16q-19 31 -109 166z" />
<glyph unicode="&#xe9;" horiz-adv-x="925" d="M782 317q10 -4 11 -14q0 -150 -90.5 -233.5t-239.5 -83.5q-145 0 -237.5 90t-92.5 227v393q0 150 94.5 246t251.5 96q133 0 223.5 -78.5t90.5 -195.5v-152q0 -66 -70 -80l-471 -88v-141q4 -90 60.5 -146.5t150.5 -56.5q100 0 156.5 54.5t56.5 148.5q0 4 3 8t5 4l4 2h94z M674 641v119q0 78 -56.5 121t-148.5 43q-113 0 -165 -62.5t-52 -165.5v-135zM596 1341l-109 -165q-10 -16 -28 -17h-66q-25 0 -14 21l86 166q8 16 24 16h93q26 -1 14 -21z" />
<glyph unicode="&#xeb;" horiz-adv-x="862" d="M754 317q10 -4 10 -14q0 -150 -90 -233.5t-240 -83.5q-145 0 -237.5 90t-92.5 227v393q0 150 94.5 246t252.5 96q133 0 223 -78.5t90 -195.5v-152q0 -66 -70 -80l-471 -88v-141q4 -90 60.5 -146.5t150.5 -56.5q100 0 156.5 54.5t56.5 148.5q0 4 3 8t5 4l4 2h95zM645 641 v119q0 78 -56.5 121t-148.5 43q-113 0 -165 -62.5t-52 -165.5v-135zM317 1335v-106l-18 -21h-100q-20 0 -21 21v106l19 21h100q20 -1 20 -21zM680 1335v-106l-18 -21h-101q-20 0 -20 21v106l18 21h100q21 -1 21 -21z" />
<glyph unicode="&#xec;" d="M55 1738q-12 20 14 21h92q16 0 25 -16l86 -166q10 -20 -14 -21h-66q-18 0 -29 17q-18 30 -108 165zM166 20v984l18 20h80q20 0 21 -20v-984l-19 -20h-80q-20 0 -20 20zM299 1413v-133l-18 -20h-107q-20 0 -20 20v133l18 21h107q20 -1 20 -21z" />
<glyph unicode="&#xed;" d="M395 1738l-109 -165q-10 -16 -28 -17h-66q-25 0 -14 21l86 166q8 16 24 16h92q27 -1 15 -21zM166 20v984l18 20h80q20 0 21 -20v-984l-19 -20h-80q-20 0 -20 20zM299 1413v-133l-18 -20h-107q-20 0 -20 20v133l18 21h107q20 -1 20 -21z" />
<glyph unicode="&#xef;" d="M113 1683v-106l-19 -21h-100q-20 0 -21 21v106l19 21h100q21 -1 21 -21zM475 1683v-106l-18 -21h-101q-20 0 -20 21v106l18 21h101q20 -1 20 -21zM166 20v984l18 20h80q20 0 21 -20v-984l-19 -20h-80q-20 0 -20 20zM299 1413v-133l-18 -20h-107q-20 0 -20 20v133l18 21 h107q20 -1 20 -21z" />
<glyph unicode="&#xf2;" horiz-adv-x="923" d="M463 100q92 0 151.5 68t59.5 184v307q0 264 -211 264.5t-211 -264.5v-307q0 -117 59.5 -184.5t151.5 -67.5zM463 1038q330 0 330 -379v-305q0 -174 -82 -271t-248 -97t-248 97t-82 271v305q0 379 330 379zM305 1403q-12 20 14 20h93q16 0 24 -16l86 -166q10 -20 -14 -20 h-66q-18 0 -28 16q-19 31 -109 166z" />
<glyph unicode="&#xf3;" horiz-adv-x="864" d="M432 100q-92 0 -151.5 68t-59.5 184v307q0 264 211 264.5t211 -264.5v-307q0 -117 -59.5 -184.5t-151.5 -67.5zM432 1038q-330 0 -330 -379v-305q0 -174 82 -271t248 -97t248 97t82 271v305q0 379 -330 379zM578 1341l-109 -165q-10 -16 -29 -17h-65q-25 0 -15 21l86 166 q8 16 25 16h92q27 -1 15 -21z" />
<glyph unicode="&#xf6;" horiz-adv-x="874" d="M438 100q92 0 151.5 68t59.5 184v307q0 264 -211 264.5t-211 -264.5v-307q0 -117 59.5 -184.5t151.5 -67.5zM438.5 1038q329.5 0 329.5 -379v-305q0 -174 -82 -271t-248 -97t-247.5 97t-81.5 271v305q0 379 329.5 379zM324 1335v-106l-19 -21h-100q-20 0 -21 21v106 l19 21h100q21 -1 21 -21zM686 1335v-106l-18 -21h-101q-20 0 -20 21v106l18 21h101q20 -1 20 -21z" />
<glyph unicode="&#xf7;" horiz-adv-x="829" d="M492 143v-123l-19 -20h-117q-20 0 -20 20v123l18 21h117q21 -1 21 -21zM492 772v-123l-19 -20h-117q-20 0 -20 20v123l18 21h117q21 -1 21 -21zM94 453h641q10 0 15.5 -5.5t7.5 -9.5v-6v-78q0 -20 -23 -20h-641l-22 18v78q-1 23 22 23z" />
<glyph unicode="&#xf8;" horiz-adv-x="874" d="M696 1108l-47 -135q117 -96 117 -283v-354q0 -156 -82 -253t-246 -97q-61 0 -116 16l-27 -78q-6 -16 -21 -16h-86q-20 0 -14 20l45 133q-111 94 -110 275v354q0 156 83.5 252t245.5 96q63 0 107 -14l30 88q6 16 21 16h86q20 0 14 -20zM647 336v354q0 86 -43 150 l-244 -723q39 -16 78 -17q92 0 150.5 62.5t58.5 173.5zM227 336q0 -78 37 -137l244 714q-37 10 -70 11q-92 0 -151.5 -64.5t-59.5 -169.5v-354z" />
<glyph unicode="&#xf9;" horiz-adv-x="923" d="M791 1004v-984l-23 -20h-76q-20 0 -20 20v72q-55 -106 -226 -106q-139 0 -226 87t-87 265v666l19 20h81q18 0 19 -20v-666q0 -238 207 -238q31 0 62.5 9.5t67.5 33t59.5 73.5t23.5 122v666l18 20h82q19 0 19 -20zM352 1341q-12 20 15 21h92q16 0 24 -16l86 -166 q10 -20 -14 -21h-66q-18 0 -28 17z" />
<glyph unicode="&#xfa;" horiz-adv-x="923" d="M791 1004v-984l-23 -20h-76q-20 0 -20 20v72q-55 -106 -226 -106q-139 0 -226 87t-87 265v666l19 20h81q18 0 19 -20v-666q0 -238 207 -238q31 0 62.5 9.5t67.5 33t59.5 73.5t23.5 122v666l18 20h82q19 0 19 -20zM569 1341q-90 -135 -108 -165q-10 -16 -29 -17h-65 q-25 0 -15 21l86 166q8 16 25 16h92q26 -1 14 -21z" />
<glyph unicode="&#xfc;" horiz-adv-x="892" d="M772 1004v-984l-22 -20h-76q-20 0 -21 20v72q-55 -106 -225 -106q-141 0 -227 87t-86 265v666l18 20h82q18 0 18 -20v-666q0 -238 207 -238q31 0 63 9.5t67.5 33t59 73.5t23.5 122v666l19 20h82q18 0 18 -20zM334 1335v-106l-19 -21h-100q-20 0 -20 21v106l18 21h100 q21 -1 21 -21zM696 1335v-106l-18 -21h-100q-20 0 -21 21v106l18 21h101q20 -1 20 -21z" />
<glyph unicode="&#xfd;" horiz-adv-x="811" d="M572 1343l-109 -165q-10 -16 -28 -17h-66q-25 0 -14 21l86 166q8 16 24 16h92q27 -1 15 -21zM289 20l-236 984q-1 4 -1 7q0 11 16 13h92q16 0 20 -20l193 -848h20l230 848l20 20h90l15 -20l-334 -1197q-39 -137 -113 -189t-178 -52h-23l-20 22v72q0 20 20 21q39 0 57.5 2 t54.5 12t57.5 39.5t33.5 77.5l47 188h-39q-14 0 -22 20z" />
<glyph unicode="&#xff;" horiz-adv-x="811" d="M289 20l-236 984q-6 18 15 20h92q16 0 20 -20l193 -848h20l230 848l20 20h90l15 -20l-334 -1197q-39 -137 -113 -189t-178 -52h-23l-20 22v72q0 20 20 21q39 0 57.5 2t54.5 12t57.5 39.5t33.5 77.5l47 188h-39q-14 0 -22 20zM289 1335v-106l-19 -21h-100q-20 0 -20 21 v106l18 21h100q21 -1 21 -21zM651 1335v-106l-18 -21h-101q-20 0 -20 21v106l18 21h101q20 -1 20 -21z" />
<glyph unicode="&#x152;" horiz-adv-x="2131" d="M1266 0v1434h723l20 -19v-82q0 -18 -18 -18h-600v-535h454l21 -18v-82q0 -18 -19 -18h-456v-543h598l20 -19v-82q0 -18 -18 -18h-725zM551 1448q209 0 308 -124t99 -327v-563q0 -201 -99 -324.5t-308 -123.5t-308.5 123.5t-99.5 324.5v563q0 203 99.5 327t308.5 124z M551 1329q-135 0 -209 -82t-74 -250v-563q0 -330 283 -330t283 330v563q0 168 -74 250t-209 82z" />
<glyph unicode="&#x153;" horiz-adv-x="1789" d="M1646 317q10 -4 11 -14q0 -150 -90.5 -233.5t-239.5 -83.5q-145 0 -237.5 90t-92.5 227v393q0 150 94.5 246t251.5 96q133 0 223.5 -78.5t90.5 -195.5v-152q0 -66 -70 -80l-471 -88v-141q4 -90 60.5 -146.5t150.5 -56.5q100 0 156.5 54.5t56.5 148.5q0 4 3 8t5 4l4 2h94z M1538 641v119q0 78 -56.5 121t-148.5 43q-113 0 -165 -62.5t-52 -165.5v-135zM432 100q92 0 151.5 68t59.5 184v307q0 264 -211 264.5t-211 -264.5v-307q0 -117 59.5 -184.5t151.5 -67.5zM432 1038q330 0 330 -379v-305q0 -174 -82 -271t-248 -97t-248 97t-82 271v305 q0 379 330 379z" />
<glyph unicode="&#x178;" horiz-adv-x="1103" d="M441 1697v-106l-19 -21h-100q-20 0 -21 21v106l19 21h100q21 -1 21 -21zM803 1697v-106l-18 -21h-101q-20 0 -20 21v106l18 21h101q20 -1 20 -21zM481 461l-385 952q-3 6 -2 11q0 10 12 10h99q16 0 22 -21l332 -835h21l297 835q6 20 22 21h98q13 0 13 -10q0 -4 -2 -11 l-502 -1393q-6 -20 -23 -20h-96q-18 0 -10 20l151 420h-24q-15 1 -23 21z" />
<glyph unicode="&#x2000;" horiz-adv-x="886" />
<glyph unicode="&#x2001;" horiz-adv-x="1773" />
<glyph unicode="&#x2002;" horiz-adv-x="886" />
<glyph unicode="&#x2003;" horiz-adv-x="1773" />
<glyph unicode="&#x2004;" horiz-adv-x="589" />
<glyph unicode="&#x2005;" horiz-adv-x="442" />
<glyph unicode="&#x2006;" horiz-adv-x="294" />
<glyph unicode="&#x2007;" horiz-adv-x="294" />
<glyph unicode="&#x2008;" horiz-adv-x="221" />
<glyph unicode="&#x2009;" horiz-adv-x="354" />
<glyph unicode="&#x200a;" horiz-adv-x="98" />
<glyph unicode="&#x2010;" horiz-adv-x="628" d="M506 492h-379l-21 18v76q0 20 21 20h379l20 -18v-76q0 -20 -20 -20z" />
<glyph unicode="&#x2011;" horiz-adv-x="628" d="M506 492h-379l-21 18v76q0 20 21 20h379l20 -18v-76q0 -20 -20 -20z" />
<glyph unicode="&#x2012;" horiz-adv-x="628" d="M506 492h-379l-21 18v76q0 20 21 20h379l20 -18v-76q0 -20 -20 -20z" />
<glyph unicode="&#x2013;" horiz-adv-x="835" d="M86 606h666l20 -18v-76q0 -20 -20 -20h-666l-20 18v76q0 20 20 20z" />
<glyph unicode="&#x2014;" horiz-adv-x="1118" d="M92 606h934l21 -18v-76q0 -20 -21 -20h-934l-20 18v76q0 20 20 20z" />
<glyph unicode="&#x2018;" horiz-adv-x="294" d="M244 1556h4q16 0 16 -20v-16q0 -16 -12 -17h-8q-111 0 -105 -162h56q20 0 20 -20v-123l-18 -20h-117q-20 0 -21 20v123q0 125 45.5 180t139.5 55z" />
<glyph unicode="&#x2019;" horiz-adv-x="294" d="M59 1178h-4q-16 0 -16 20v16q0 16 12 17h8q111 0 105 162h-55q-20 0 -21 20v123l18 20h117q20 0 21 -20v-123q0 -125 -45.5 -180t-139.5 -55z" />
<glyph unicode="&#x201a;" horiz-adv-x="315" d="M59 -215h-4q-16 0 -16 20v17q0 16 12 16h8q111 0 105 162h-55q-20 0 -21 20v123l18 21h117q20 0 21 -21v-123q0 -125 -45.5 -180t-139.5 -55z" />
<glyph unicode="&#x201c;" horiz-adv-x="555" d="M483 1556h4q16 0 17 -20v-16q0 -16 -12 -17h-9q-111 0 -104 -162h55q20 0 21 -20v-123l-19 -20h-117q-20 0 -20 20v123q0 125 45 180t139 55zM244 1556h4q16 0 16 -20v-16q0 -16 -12 -17h-8q-111 0 -105 -162h56q20 0 20 -20v-123l-18 -20h-117q-20 0 -21 20v123 q0 125 45.5 180t139.5 55z" />
<glyph unicode="&#x201d;" horiz-adv-x="555" d="M59 1178h-4q-16 0 -16 20v16q0 16 12 17h8q111 0 105 162h-55q-20 0 -21 20v123l18 20h117q20 0 21 -20v-123q0 -125 -45.5 -180t-139.5 -55zM299 1178h-4q-16 0 -16 20v16q0 16 12 17h8q111 0 104 162h-55q-20 0 -20 20v123l18 20h117q20 0 20 -20v-123q0 -125 -45 -180 t-139 -55z" />
<glyph unicode="&#x201e;" horiz-adv-x="555" d="M59 -215h-4q-16 0 -16 20v17q0 16 12 16h8q111 0 105 162h-55q-20 0 -21 20v123l18 21h117q20 0 21 -21v-123q0 -125 -45.5 -180t-139.5 -55zM299 -215h-4q-16 0 -16 20v17q0 16 12 16h8q111 0 104 162h-55q-20 0 -20 20v123l18 21h117q20 0 20 -21v-123q0 -125 -45 -180 t-139 -55z" />
<glyph unicode="&#x2026;" horiz-adv-x="950" d="M248 143v-123l-19 -20h-116q-20 0 -21 20v123l19 21h116q21 -1 21 -21zM553 143v-123l-18 -20h-117q-20 0 -21 20v123l19 21h116q21 -1 21 -21zM858 143v-123l-18 -20h-117q-20 0 -21 20v123l19 21h117q20 -1 20 -21z" />
<glyph unicode="&#x202f;" horiz-adv-x="354" />
<glyph unicode="&#x2039;" horiz-adv-x="423" d="M227 233l-135 252l135 252q8 16 21 17h86q27 0 14 -21l-135 -248l135 -247q12 -20 -14 -21h-86q-13 0 -21 16z" />
<glyph unicode="&#x203a;" horiz-adv-x="423" d="M332 485l-135 -252q-8 -16 -21 -16h-86q-27 0 -14 21l135 247l-135 248q-12 20 14 21h86q12 0 21 -17z" />
<glyph unicode="&#x205f;" horiz-adv-x="442" />
<glyph unicode="&#x20ac;" horiz-adv-x="1075" d="M238 485h-93q-14 0 -18 5.5t-2 13.5l25 76q8 20 28 20h60v174h-86q-14 0 -18.5 5t-2.5 14l25 75q6 20 28 21h54v131q0 197 90 312.5t272 115.5t272.5 -115.5t90.5 -312.5l-19 -21h-86q-20 0 -20 21q0 309 -238 309t-238 -309v-131h355q14 0 18 -5t2 -14l-24 -75 q-10 -20 -29 -21h-322v-174h279q14 0 18.5 -5t2.5 -13l-25 -76q-10 -20 -29 -21h-246v-69q0 -162 65 -237t173.5 -75t173 75t64.5 237l18 20h86q20 0 21 -20q0 -190 -97.5 -310t-265.5 -120t-265 119.5t-97 310.5v69z" />
<glyph unicode="&#x2122;" horiz-adv-x="2226" d="M1538 625l-272 659l8 -1264q0 -20 -21 -20h-84q-20 0 -20 20v1393q0 20 20 21h127q18 0 29 -21l283 -663l278 663q10 20 29 21h127q20 0 20 -21v-1393q0 -20 -20 -20h-84q-20 0 -21 20l11 1264l-265 -659q-8 -20 -22 -21h-98q-17 1 -25 21zM883 1315h-328v-1295l-18 -20 h-86q-20 0 -21 20v1295h-328l-20 18v80q0 20 20 21h781l20 -19v-80q0 -20 -20 -20z" />
<glyph unicode="&#xe000;" horiz-adv-x="1025" d="M0 1025h1025v-1025h-1025v1025z" />
<glyph unicode="&#xfb01;" horiz-adv-x="1069" d="M782 20v984l18 20h80q20 0 21 -20v-984l-19 -20h-80q-20 0 -20 20zM915 1413v-133l-18 -20h-107q-20 0 -20 20v133l18 21h107q20 -1 20 -21zM356 891v-871l-18 -20h-80q-20 0 -20 20v871h-84l-21 18v76q0 20 21 21h84v116q0 147 79.5 229.5t235.5 82.5h43l20 -19v-76 q0 -20 -20 -20h-43q-106 0 -151.5 -47t-45.5 -150v-116h228l20 -19v-76q0 -20 -20 -20h-228z" />
<glyph unicode="&#xfb02;" horiz-adv-x="1144" d="M1087 100l21 -18v-76q0 -20 -21 -20q-324 0 -324 333v1094l19 21h80q20 0 20 -21v-1094q0 -115 46 -167t159 -52zM356 891v-871l-18 -20h-80q-20 0 -20 20v871h-84l-21 18v76q0 20 21 21h84v116q0 147 79.5 229.5t235.5 82.5h43l20 -19v-76q0 -20 -20 -20h-43 q-106 0 -151.5 -47t-45.5 -150v-116h228l20 -19v-76q0 -20 -20 -20h-228z" />
<glyph unicode="&#xfb03;" horiz-adv-x="1685" d="M1399 20v984l18 20h80q20 0 21 -20v-984l-19 -20h-80q-20 0 -20 20zM1532 1413v-133l-18 -20h-107q-20 0 -20 20v133l18 21h107q20 -1 20 -21zM972 891v-871l-18 -20h-80q-20 0 -20 20v871h-84l-21 18v76q0 20 21 21h84v116q0 147 79.5 229.5t235.5 82.5h43l20 -19v-76 q0 -20 -20 -20h-43q-106 0 -151.5 -47t-45.5 -150v-116h228l20 -19v-76q0 -20 -20 -20h-228zM356 891v-871l-18 -20h-80q-20 0 -20 20v871h-84l-21 18v76q0 20 21 21h84v116q0 147 79.5 229.5t235.5 82.5h43l20 -19v-76q0 -20 -20 -20h-43q-106 0 -151.5 -47t-45.5 -150 v-116h228l20 -19v-76q0 -20 -20 -20h-228z" />
<glyph unicode="&#xfb04;" horiz-adv-x="1761" d="M1704 100l21 -18v-76q0 -20 -21 -20q-324 0 -324 333v1094l19 21h80q20 0 20 -21v-1094q0 -115 46 -167t159 -52zM972 891v-871l-18 -20h-80q-20 0 -20 20v871h-84l-21 18v76q0 20 21 21h84v116q0 147 79.5 229.5t235.5 82.5h43l20 -19v-76q0 -20 -20 -20h-43 q-106 0 -151.5 -47t-45.5 -150v-116h228l20 -19v-76q0 -20 -20 -20h-228zM356 891v-871l-18 -20h-80q-20 0 -20 20v871h-84l-21 18v76q0 20 21 21h84v116q0 147 79.5 229.5t235.5 82.5h43l20 -19v-76q0 -20 -20 -20h-43q-106 0 -151.5 -47t-45.5 -150v-116h228l20 -19v-76 q0 -20 -20 -20h-228z" />
</font>
</defs>
</svg>
